<?xml version="1.0" standalone="no"?>
<!DOCTYPE svg PUBLIC "-//W3C//DTD SVG 20010904//EN"
 "http://www.w3.org/TR/2001/REC-SVG-20010904/DTD/svg10.dtd">
<svg version="1.0" xmlns="http://www.w3.org/2000/svg"
 width="500.000000pt" height="500.000000pt" viewBox="0 0 500.000000 500.000000"
 preserveAspectRatio="xMidYMid meet">
<metadata>
Created by potrace 1.14, written by Peter Selinger 2001-2017
</metadata>
<g transform="translate(0.000000,500.000000) scale(0.100000,-0.100000)"
fill="#000000" stroke="none">
<path d="M4331 3952 c-11 -9 -54 -64 -96 -122 -41 -58 -81 -114 -89 -125 -8
-11 -63 -87 -121 -170 -59 -82 -110 -154 -114 -158 -5 -4 -41 10 -82 32 -253
137 -541 172 -816 100 -134 -35 -248 -89 -365 -171 l-68 -48 -56 55 c-137 135
-326 243 -509 291 -16 4 -32 8 -35 9 -171 48 -475 27 -646 -44 -120 -49 -167
-73 -237 -119 -252 -164 -440 -447 -491 -737 -3 -16 -9 -41 -12 -55 -7 -30
-11 -1650 -4 -1650 6 0 64 50 224 195 6 6 31 28 56 49 25 22 85 76 134 120 48
45 104 95 123 112 l35 31 2 150 c1 169 4 175 79 199 l42 13 -35 0 c-48 1 -82
-18 -102 -57 l-16 -33 -31 44 c-93 136 -106 328 -32 472 18 33 32 49 43 47 9
-1 68 -32 131 -68 104 -59 118 -64 139 -53 30 16 38 28 38 61 0 21 -10 34 -44
57 -25 17 -55 36 -68 41 -34 15 -116 64 -129 77 -10 10 -3 28 28 72 1 2 21 -8
45 -22 41 -23 67 -38 165 -94 38 -22 45 -23 70 -11 38 18 52 61 29 86 -9 11
-68 50 -131 87 -63 37 -115 69 -115 71 0 13 32 64 39 64 5 0 42 -19 83 -43 40
-24 80 -46 88 -50 8 -4 30 -16 49 -27 51 -32 101 -8 101 47 0 24 -8 33 -38 50
-62 33 -213 122 -221 129 -7 7 48 90 85 127 120 120 295 167 457 124 122 -32
234 -125 291 -240 35 -72 35 -72 21 -122 -9 -27 -17 -67 -20 -88 -3 -21 -8
-43 -11 -48 -3 -5 -7 -54 -10 -110 -4 -83 -8 -106 -28 -137 -21 -33 -78 -131
-248 -422 -92 -158 -177 -228 -321 -266 -67 -17 -222 -11 -257 11 -10 6 -11
-10 -11 -110 0 -111 -5 -101 63 -124 347 -111 743 -43 1033 180 l65 49 42 -41
c140 -136 318 -233 517 -281 108 -26 357 -32 469 -11 349 66 651 303 804 631
47 99 86 246 96 357 12 130 8 1603 -4 1615 -18 18 -53 19 -73 2z"/>
</g>
</svg>
